
<svg version="1.0" xmlns="http://www.w3.org/2000/svg"
 width="18" height="18" fill="blue" viewBox="0 0 512 512"
 preserveAspectRatio="xMidYMid meet">

<g transform="translate(0.000000,512.000000) scale(0.100000,-0.100000)"
fill="#3369F3" stroke="#3369F3">
<path d="M3680 4345 l0 -345 -345 0 -345 0 0 -160 0 -160 345 0 345 0 0 -345
0 -345 160 0 160 0 0 345 0 345 345 0 345 0 0 160 0 160 -345 0 -345 0 0 345
0 345 -160 0 -160 0 0 -345z"/>
<path d="M1500 2560 l0 -210 210 0 210 0 0 210 0 210 -210 0 -210 0 0 -210z"/>
<path d="M2350 2560 l0 -210 210 0 210 0 0 210 0 210 -210 0 -210 0 0 -210z"/>
<path d="M3200 2560 l0 -210 210 0 210 0 0 210 0 210 -210 0 -210 0 0 -210z"/>
<path d="M4535 2648 c-2 -7 -6 -60 -8 -118 -21 -448 -271 -933 -644 -1248
-482 -407 -1111 -566 -1743 -441 -104 21 -345 96 -402 125 -30 15 -34 14 -335
-121 -167 -75 -306 -135 -307 -133 -2 1 30 128 71 280 l75 278 -76 71 c-98 91
-214 230 -289 344 -64 98 -168 304 -188 373 -7 23 -14 42 -17 42 -3 0 -55 -47
-117 -105 -62 -58 -116 -105 -120 -105 -4 0 28 33 71 73 44 39 99 91 124 114
25 23 42 44 39 48 -4 3 -61 -44 -128 -106 -100 -92 -121 -115 -116 -133 15
-51 138 -289 195 -376 72 -109 107 -154 203 -262 l68 -78 -95 -355 c-53 -195
-96 -371 -96 -392 0 -87 75 -157 160 -150 31 3 171 60 449 185 l404 181 46
-19 c75 -29 260 -78 379 -99 648 -117 1312 38 1836 427 116 87 310 272 399
382 258 320 423 717 467 1122 5 54 10 122 10 153 l0 55 -155 0 c-116 0 -157
-3 -160 -12z"/>
</g>
</svg>
