<svg version="1.0" xmlns="http://www.w3.org/2000/svg"
     width="18" height="18" fill="red" viewBox="0 0 512 512"
     preserveAspectRatio="xMidYMid meet">
    <g transform="translate(0.000000,512.000000) scale(0.100000,-0.100000)" fill="red" stroke="none">
        <path d="M2268 4835 c-880 -107 -1624 -700 -1894 -1510 -111 -334 -136 -719 -68 -1060 69 -348 239 -702 458 -955 36 -41 78 -91 94 -110 l29 -35 -99 -365 c-66 -245 -97 -375 -93 -395 14 -78 79 -135 154 -135 47 0 43 -2 563 231 158 71 293 129 301 129 8 0 40 -9 73 -20 169 -59 333 -95 524 -115 1129 -121 2192 580 2470 1629 41 156 60 271 67 419 l6 128 -159 -3 -159 -3 -2 -50 c-17 -366 -128 -691 -343 -998 -84 -120 -316 -352 -437 -437 -337 -235 -704 -360 -1113 -377 -285 -12 -544 32 -832 139 l-107 40 -298 -134 c-164 -74 -299 -131 -301 -128 -1 4 29 123 68 266 38 142 70 266 70 274 0 9 -41 56 -91 105 -316 312 -501 683 -549 1097 -18 148 -8 401 20 542 159 804 849 1418 1705 1516 50 5 123 10 163 10 l72 0 0 160 0 160 -92 -1 c-51 -1 -141 -7 -200 -14z"/>
        <path d="M3407 4692 l-107 -107 260 -260 c143 -143 260 -264 260 -270 0 -6 -117 -127 -260 -270 l-260 -260 112 -112 113 -113 260 260 c143 143 265 260 270 260 5 0 126 -116 267 -257 l258 -258 112 113 113 112 -263 263 -262 262 262 263 263 262 -113 112 -112 113 -263 -263 -262 -262 -260 260 c-143 143 -264 260 -270 260 -6 0 -59 -48 -118 -108z"/>
        <path d="M1490 2560 l0 -210 215 0 215 0 0 210 0 210 -215 0 -215 0 0 -210z"/>
        <path d="M2350 2560 l0 -210 210 0 210 0 0 210 0 210 -210 0 -210 0 0 -210z"/>
        <path d="M3200 2560 l0 -210 215 0 215 0 0 210 0 210 -215 0 -215 0 0 -210z"/>
    </g>
</svg>